<svg width="10" height="16" viewBox="0 0 10 16" fill="none" xmlns="http://www.w3.org/2000/svg">
<path d="M9.01384 8.00001C9.01384 7.88327 8.9908 7.77421 8.94471 7.67282C8.89863 7.57144 8.83258 7.47774 8.74656 7.39171L1.447 0.239631C1.28111 0.0798772 1.07834 0 0.838711 0C0.685101 0 0.543779 0.0368666 0.414747 0.1106C0.285715 0.184332 0.184332 0.284179 0.1106 0.410139C0.0368666 0.536099 0 0.678957 0 0.838711C0 1.06605 0.0798772 1.26575 0.239631 1.43779L6.94932 8.00001L0.239631 14.5622C0.0798772 14.7343 0 14.934 0 15.1614C0 15.3211 0.0368666 15.464 0.1106 15.5899C0.184332 15.7159 0.285715 15.8157 0.414747 15.8894C0.543779 15.9631 0.685101 16 0.838711 16C1.07834 16 1.28111 15.9171 1.447 15.7512L8.74656 8.6083C8.83258 8.52229 8.89863 8.42859 8.94471 8.3272C8.9908 8.22582 9.01384 8.11675 9.01384 8.00001Z" fill="white"/>
</svg>
