<svg width="45" height="38" viewBox="0 0 45 38" fill="none" xmlns="http://www.w3.org/2000/svg">
<rect width="45" height="38" rx="14" fill="#1C1C1E"/>
<path d="M17.2393 12.8384H18.6466V10.7686C18.6466 10.3319 18.7617 9.99563 18.9918 9.75982C19.222 9.52402 19.5644 9.40612 20.0189 9.40612H23.8823V13.8865C23.8823 14.393 24.0062 14.7686 24.2538 15.0131C24.5015 15.2576 24.8759 15.3799 25.377 15.3799H29.4677V22.8472C29.4677 23.2839 29.3512 23.6201 29.1181 23.8559C28.885 24.0917 28.5412 24.2096 28.0867 24.2096H26.3647V25.6158H28.1654C29.0686 25.6158 29.746 25.3858 30.1976 24.9258C30.6492 24.4658 30.875 23.7817 30.875 22.8734V15.7817C30.875 15.246 30.8109 14.7918 30.6827 14.4192C30.5545 14.0466 30.3272 13.6914 30.0009 13.3537L25.5868 8.87336C25.2779 8.55313 24.937 8.32751 24.5641 8.19651C24.1912 8.0655 23.7687 8 23.2967 8H19.949C19.0457 8 18.3683 8.22999 17.9167 8.68996C17.4651 9.14993 17.2393 9.83406 17.2393 10.7424V12.8384ZM25.1497 13.6769V10.0961L29.1006 14.1135H25.578C25.4265 14.1135 25.3173 14.0801 25.2503 14.0131C25.1832 13.9461 25.1497 13.8341 25.1497 13.6769ZM13 27.2314C13 28.1456 13.2258 28.8311 13.6774 29.2882C14.129 29.7453 14.8064 29.9738 15.7097 29.9738H23.926C24.8292 29.9738 25.5067 29.7438 25.9583 29.2838C26.4099 28.8238 26.6357 28.1397 26.6357 27.2314V20.4105C26.6357 20.0379 26.6153 19.7235 26.5745 19.4673C26.5337 19.2111 26.4536 18.9767 26.3342 18.7642C26.2147 18.5517 26.0384 18.3261 25.8053 18.0873L20.9891 13.1878C20.657 12.8443 20.3306 12.6201 20.0101 12.5153C19.6896 12.4105 19.2847 12.3581 18.7952 12.3581H15.7097C14.8064 12.3581 14.129 12.5881 13.6774 13.048C13.2258 13.508 13 14.1921 13 15.1004V27.2314ZM14.4073 27.2052V15.1179C14.4073 14.687 14.5224 14.3537 14.7525 14.1179C14.9827 13.8821 15.3251 13.7642 15.7796 13.7642H18.6466V18.8297C18.6466 19.3828 18.785 19.7962 19.0618 20.0699C19.3386 20.3435 19.7479 20.4804 20.2899 20.4804H25.2284V27.2052C25.2284 27.6419 25.1119 27.9781 24.8788 28.2139C24.6457 28.4498 24.3048 28.5676 23.8561 28.5676H15.7708C15.3221 28.5676 14.9827 28.4498 14.7525 28.2139C14.5224 27.9781 14.4073 27.6419 14.4073 27.2052ZM20.4559 19.1616C20.2811 19.1616 20.1558 19.1237 20.0801 19.048C20.0043 18.9724 19.9664 18.8472 19.9664 18.6725V14.0873L24.9575 19.1616H20.4559Z" fill="#0A84FF"/>
</svg>
