<svg width="15" height="21" viewBox="0 0 15 21" fill="none" xmlns="http://www.w3.org/2000/svg">
<path d="M13.3333 1.9531H9.85C9.5 0.986438 8.58333 0.286438 7.5 0.286438C6.41667 0.286438 5.5 0.986438 5.15 1.9531H1.66667C0.75 1.9531 0 2.7031 0 3.61977V18.47C0 19.3867 0.75 20.638 1.66667 20.638H13.3333C14.25 20.638 15 19.3867 15 18.47V3.61977C15 2.7031 14.25 1.9531 13.3333 1.9531ZM7.5 1.9531C7.95833 1.9531 8.33333 2.3281 8.33333 2.78644C8.33333 3.24477 7.95833 3.61977 7.5 3.61977C7.04167 3.61977 6.66667 3.24477 6.66667 2.78644C6.66667 2.3281 7.04167 1.9531 7.5 1.9531ZM12.5 18.47H2.5C2.04167 18.47 1.66667 17.7956 1.66667 17.3372V4.4531C1.66667 3.99477 2.04167 3.61977 2.5 3.61977H3.33333V4.4531C3.33333 5.36977 4.08333 6.11977 5 6.11977H10C10.9167 6.11977 11.6667 5.36977 11.6667 4.4531V3.61977H12.5C12.9583 3.61977 13.3333 3.99477 13.3333 4.4531V17.3372C13.3333 17.7956 12.9583 18.47 12.5 18.47Z" fill="#0A84FF"/>
</svg>
