<svg width="34" height="34" viewBox="0 0 34 34" fill="none" xmlns="http://www.w3.org/2000/svg">
<rect width="34" height="34" rx="17" fill="#0A84FF"/>
<path d="M22.0138 17C22.0138 16.8833 21.9908 16.7742 21.9447 16.6728C21.8986 16.5714 21.8326 16.4777 21.7466 16.3917L14.447 9.23963C14.2811 9.07988 14.0783 9 13.8387 9C13.6851 9 13.5438 9.03687 13.4147 9.1106C13.2857 9.18433 13.1843 9.28418 13.1106 9.41014C13.0369 9.5361 13 9.67896 13 9.83871C13 10.0661 13.0799 10.2657 13.2396 10.4378L19.9493 17L13.2396 23.5622C13.0799 23.7343 13 23.934 13 24.1614C13 24.3211 13.0369 24.464 13.1106 24.5899C13.1843 24.7159 13.2857 24.8157 13.4147 24.8894C13.5438 24.9631 13.6851 25 13.8387 25C14.0783 25 14.2811 24.9171 14.447 24.7512L21.7466 17.6083C21.8326 17.5223 21.8986 17.4286 21.9447 17.3272C21.9908 17.2258 22.0138 17.1168 22.0138 17Z" fill="white"/>
</svg>
