<svg width="28" height="26" viewBox="0 0 28 26" fill="none" xmlns="http://www.w3.org/2000/svg">
<path d="M3.31812 25.7426H24.6819C25.3618 25.7426 25.9511 25.5953 26.4497 25.3006C26.9483 25.006 27.3314 24.6072 27.5988 24.104C27.8663 23.6008 28 23.041 28 22.4245C28 22.1435 27.9637 21.867 27.8912 21.595C27.8187 21.3229 27.7099 21.0555 27.5648 20.7926L16.8626 1.68626C16.5543 1.13324 16.1418 0.713939 15.6251 0.428363C15.1084 0.142788 14.5689 0 14.0068 0C13.4447 0 12.903 0.142788 12.3817 0.428363C11.8605 0.713939 11.4457 1.13324 11.1375 1.68626L0.448763 20.8062C0.149588 21.3501 0 21.8896 0 22.4245C0 23.041 0.135989 23.6008 0.407966 24.104C0.679943 24.6072 1.06298 25.006 1.55706 25.3006C2.05116 25.5953 2.63818 25.7426 3.31812 25.7426Z" fill="#FFCC00"/>
<path d="M14.0069 20.6703C12.8193 20.6703 11.8651 20.319 11.1443 19.6163C10.4236 18.9137 10.0632 17.9913 10.0632 16.849C10.0632 16.2778 10.1562 15.7452 10.342 15.251C10.5279 14.757 10.7069 14.3241 10.8792 13.9524C11.1965 13.2725 11.5886 12.5404 12.0555 11.7562C12.5224 10.972 12.9734 10.2399 13.4086 9.55999C13.5717 9.30615 13.7712 9.17923 14.0069 9.17923C14.2335 9.17923 14.4284 9.30615 14.5916 9.55999C15.0268 10.2399 15.4779 10.972 15.9447 11.7562C16.4116 12.5404 16.8037 13.2725 17.121 13.9524C17.2933 14.3241 17.4724 14.757 17.6582 15.251C17.8441 15.7452 17.937 16.2778 17.937 16.849C17.937 17.9913 17.5766 18.9137 16.8559 19.6163C16.1351 20.319 15.1854 20.6703 14.0069 20.6703Z" fill="#007AFF"/>
</svg>
