<svg width="13" height="25" viewBox="0 0 13 25" fill="none" xmlns="http://www.w3.org/2000/svg">
<path d="M6.24023 0.148655C5.36784 0.148655 4.55566 0.30816 3.80371 0.62717C3.05176 0.946183 2.39095 1.39052 1.82129 1.96018C1.25163 2.52984 0.805664 3.19065 0.483398 3.9426C0.161133 4.69455 0 5.50347 0 6.36936C0 7.24175 0.164388 8.06369 0.493164 8.83518C0.82194 9.60666 1.28581 10.2837 1.88477 10.8664C2.48372 11.4491 3.1901 11.8967 4.00391 12.2092V21.8479C4.00391 21.9716 4.02507 22.0822 4.06738 22.1799C4.1097 22.2776 4.17318 22.372 4.25781 22.4631L5.88867 24.1037C5.9733 24.1884 6.08561 24.2372 6.22559 24.2502C6.36556 24.2632 6.48763 24.2176 6.5918 24.1135L9.6875 21.0178C9.79167 20.9136 9.84212 20.7964 9.83887 20.6662C9.83561 20.536 9.78515 20.4188 9.6875 20.3147L7.76367 18.4201L10.4004 15.7932C10.4981 15.6955 10.5453 15.5816 10.542 15.4514C10.5387 15.3212 10.485 15.204 10.3809 15.0998L7.77344 12.4729C9.28388 11.8739 10.4444 11.0406 11.2549 9.97287C12.0654 8.90516 12.4707 7.70399 12.4707 6.36936C12.4707 5.50999 12.3096 4.70432 11.9873 3.95237C11.665 3.20042 11.2191 2.53961 10.6494 1.96994C10.0797 1.40028 9.41732 0.954318 8.66211 0.632053C7.9069 0.309788 7.09961 0.148655 6.24023 0.148655ZM6.24023 6.11545C5.75846 6.11545 5.34831 5.94618 5.00977 5.60764C4.67122 5.2691 4.50195 4.85894 4.50195 4.37717C4.50195 3.8954 4.66959 3.48524 5.00488 3.1467C5.34017 2.80816 5.75195 2.63889 6.24023 2.63889C6.71549 2.63889 7.12402 2.80979 7.46582 3.15158C7.80762 3.49338 7.97852 3.90191 7.97852 4.37717C7.97852 4.85894 7.80762 5.2691 7.46582 5.60764C7.12402 5.94618 6.71549 6.11545 6.24023 6.11545Z" fill="#AC8E68"/>
</svg>
