<svg width="22" height="14" viewBox="0 0 22 14" fill="none" xmlns="http://www.w3.org/2000/svg">
<path d="M9.76562 8.84766C9.76562 7.98177 9.57031 7.19564 9.17969 6.48926C8.78906 5.78288 8.26172 5.22136 7.59766 4.80469C6.93359 4.38802 6.18815 4.17969 5.36133 4.17969C4.7819 4.17969 4.22689 4.29362 3.69629 4.52148C3.16569 4.74935 2.69531 5.08789 2.28516 5.53711H2.02148C2.16471 5.07487 2.37468 4.63542 2.65137 4.21875C2.92806 3.80208 3.25847 3.4196 3.64258 3.07129C4.02669 2.72298 4.45638 2.41537 4.93164 2.14844C5.4069 1.88151 5.91146 1.66992 6.44531 1.51367C6.60156 1.46159 6.73503 1.41276 6.8457 1.36719C6.95638 1.32162 7.04427 1.26953 7.10938 1.21094C7.1875 1.15235 7.24772 1.08073 7.29004 0.996094C7.33236 0.911459 7.35352 0.813802 7.35352 0.703125C7.35352 0.501302 7.2819 0.335287 7.13867 0.205078C6.99544 0.0748698 6.8099 0.00976562 6.58203 0.00976562C6.43229 0.00976562 6.28743 0.0260417 6.14746 0.0585938C6.00749 0.0911459 5.83333 0.139974 5.625 0.205078C4.94792 0.426432 4.31315 0.724283 3.7207 1.09863C3.12825 1.47298 2.59766 1.90755 2.12891 2.40234C1.47136 3.08593 0.95215 3.88021 0.571289 4.78516C0.19043 5.69011 0 6.68294 0 7.76367C0 8.98112 0.23112 10.0212 0.693359 10.8838C1.1556 11.7464 1.76921 12.4056 2.53418 12.8613C3.29915 13.317 4.13737 13.5449 5.04883 13.5449C5.94076 13.5449 6.74316 13.3366 7.45605 12.9199C8.16894 12.5032 8.7321 11.9417 9.14551 11.2354C9.55892 10.529 9.76562 9.73309 9.76562 8.84766ZM21.4941 8.84766C21.4941 7.98177 21.2988 7.19564 20.9082 6.48926C20.5176 5.78288 19.9903 5.22136 19.3262 4.80469C18.6621 4.38802 17.9167 4.17969 17.0898 4.17969C16.5104 4.17969 15.9538 4.29362 15.4199 4.52148C14.886 4.74935 14.4173 5.08789 14.0137 5.53711H13.75C13.8867 5.07487 14.0934 4.63542 14.3701 4.21875C14.6468 3.80208 14.9789 3.4196 15.3662 3.07129C15.7536 2.72298 16.1833 2.41537 16.6553 2.14844C17.1273 1.88151 17.6302 1.66992 18.1641 1.51367C18.3203 1.46159 18.4554 1.41276 18.5693 1.36719C18.6832 1.32162 18.7728 1.26953 18.8379 1.21094C18.916 1.15235 18.9746 1.08073 19.0137 0.996094C19.0528 0.911459 19.0723 0.813802 19.0723 0.703125C19.0723 0.501302 19.0039 0.335287 18.8672 0.205078C18.7305 0.0748698 18.5449 0.00976562 18.3105 0.00976562C18.1543 0.00976562 18.0078 0.0260417 17.8711 0.0585938C17.7344 0.0911459 17.5586 0.139974 17.3438 0.205078C16.6732 0.426432 16.04 0.724283 15.4443 1.09863C14.8486 1.47298 14.3164 1.90755 13.8477 2.40234C13.1966 3.08593 12.6807 3.88021 12.2998 4.78516C11.9189 5.69011 11.7285 6.68294 11.7285 7.76367C11.7285 8.98112 11.9596 10.0212 12.4219 10.8838C12.8841 11.7464 13.4977 12.4056 14.2627 12.8613C15.0277 13.317 15.8659 13.5449 16.7773 13.5449C17.6758 13.5449 18.4798 13.3366 19.1895 12.9199C19.8991 12.5032 20.4606 11.9417 20.874 11.2354C21.2874 10.529 21.4941 9.73309 21.4941 8.84766Z" fill="#AC8E68"/>
</svg>
