<svg width="20" height="20" viewBox="0 0 20 20" fill="none" xmlns="http://www.w3.org/2000/svg">
<circle cx="10" cy="10" r="10" fill="#AEAEB2"/>
<path d="M7.71232 9.89173L13.0617 5.01581C13.0709 5.00751 13.0829 5.00289 13.0955 5.00288L16.9502 5C16.9599 5.00001 16.9694 5.00278 16.9775 5.00797C16.9856 5.01317 16.992 5.02056 16.9959 5.02924C16.9998 5.03793 17.001 5.04754 16.9994 5.05689C16.9979 5.06625 16.9935 5.07495 16.987 5.08194L5.53144 16.9842C5.52455 16.9916 5.51553 16.9966 5.5056 16.9988C5.49566 17.001 5.48528 17.0001 5.47586 16.9964C5.46643 16.9926 5.45839 16.9862 5.45283 16.9778C5.44727 16.9695 5.44445 16.9597 5.44474 16.9497L5.44621 6.47054C5.44621 6.45757 5.44094 6.44514 5.43157 6.43598C5.4222 6.42681 5.40949 6.42166 5.39624 6.42166H4.05303C4.03978 6.42166 4.02707 6.41651 4.0177 6.40735C4.00833 6.39818 4.00306 6.38575 4.00306 6.37279L4.00012 5.05175C4.00012 5.03879 4.00539 5.02636 4.01476 5.01719C4.02413 5.00802 4.03684 5.00288 4.05009 5.00288L7.58153 5.00144C7.59478 5.00144 7.60749 5.00659 7.61686 5.01575C7.62623 5.02492 7.6315 5.03735 7.6315 5.05031L7.62856 9.85579C7.62857 9.86527 7.6314 9.87455 7.63671 9.88249C7.64202 9.89043 7.64957 9.89668 7.65845 9.90049C7.66734 9.9043 7.67716 9.9055 7.68672 9.90394C7.69629 9.90239 7.70518 9.89814 7.71232 9.89173Z" fill="black"/>
</svg>
